<?xml version="1.0" encoding="UTF-8" standalone="no"?>
<!DOCTYPE svg PUBLIC "-//W3C//DTD SVG 1.1//EN" "http://www.w3.org/Graphics/SVG/1.1/DTD/svg11.dtd">
<svg version="1.1" xmlns="http://www.w3.org/2000/svg" xmlns:xlink="http://www.w3.org/1999/xlink" preserveAspectRatio="xMidYMid meet" viewBox="0 0 640 640" width="1500" height="1500"><defs><path d="M281.27 147.12L281.65 147.16L282.03 147.22L282.41 147.29L282.78 147.38L283.16 147.48L283.52 147.6L283.88 147.73L284.24 147.88L284.6 148.04L284.94 148.21L285.28 148.39L285.62 148.6L285.95 148.81L286.27 149.04L286.58 149.28L286.88 149.54L287.18 149.81L287.47 150.09L287.74 150.38L288.01 150.69L288.27 151.02L289.67 152.87L289.91 153.2L290.14 153.54L290.35 153.88L290.55 154.24L290.73 154.59L290.89 154.95L291.04 155.32L291.18 155.69L291.3 156.06L291.4 156.44L291.49 156.82L291.56 157.2L291.62 157.58L291.67 157.97L291.7 158.35L291.71 158.73L291.71 159.12L291.69 159.5L291.66 159.89L291.62 160.27L291.56 160.65L291.49 161.02L291.4 161.4L291.3 161.77L291.18 162.13L291.05 162.5L290.91 162.86L290.75 163.21L290.57 163.56L290.39 163.9L290.19 164.23L289.97 164.56L289.74 164.88L289.5 165.19L289.24 165.5L288.98 165.79L288.69 166.08L288.4 166.36L288.09 166.62L287.76 166.88L227.03 213.06L283.56 264.45L283.86 264.73L284.15 265.02L284.42 265.32L284.68 265.63L284.92 265.95L285.15 266.28L285.36 266.61L285.56 266.95L285.75 267.3L285.92 267.65L286.07 268L286.21 268.36L286.34 268.73L286.45 269.1L286.55 269.47L286.64 269.85L286.71 270.23L286.76 270.61L286.8 270.99L286.83 271.37L286.84 271.75L286.83 272.14L286.82 272.52L286.78 272.91L286.73 273.29L286.67 273.67L286.6 274.05L286.5 274.42L286.4 274.79L286.27 275.16L286.14 275.53L285.99 275.89L285.82 276.25L285.64 276.6L285.44 276.95L285.23 277.28L285.01 277.62L284.77 277.94L284.51 278.26L284.24 278.57L282.68 280.29L282.39 280.59L282.1 280.88L281.8 281.15L281.49 281.4L281.17 281.65L280.85 281.87L280.51 282.09L280.17 282.29L279.83 282.47L279.48 282.64L279.12 282.8L278.76 282.94L278.39 283.07L278.03 283.18L277.65 283.28L277.28 283.36L276.9 283.43L276.52 283.49L276.14 283.53L275.75 283.55L275.37 283.56L274.99 283.56L274.6 283.54L274.22 283.51L273.84 283.46L273.46 283.4L273.08 283.32L272.7 283.23L272.33 283.12L271.96 283L271.59 282.87L271.23 282.71L270.88 282.55L270.52 282.37L270.18 282.17L269.84 281.96L269.51 281.73L269.18 281.49L268.86 281.24L268.55 280.97L202.08 220.55L201.78 220.27L201.5 219.98L201.23 219.68L200.97 219.37L200.73 219.05L200.5 218.72L200.28 218.39L200.09 218.05L199.9 217.7L199.73 217.35L199.57 217L199.43 216.64L199.3 216.27L199.19 215.9L199.09 215.53L199.01 215.15L198.94 214.77L198.88 214.39L198.84 214.01L198.82 213.63L198.81 213.25L198.81 212.86L198.83 212.48L198.85 212.3L198.82 212.01L198.81 211.62L198.81 211.24L198.82 210.85L198.85 210.47L198.9 210.09L198.96 209.71L199.03 209.33L199.12 208.96L199.22 208.59L199.34 208.22L199.47 207.86L199.61 207.5L199.77 207.15L199.95 206.8L200.13 206.46L200.33 206.13L200.55 205.8L200.78 205.48L201.02 205.16L201.27 204.86L201.54 204.56L201.83 204.28L202.12 204L202.43 203.73L202.75 203.48L274.25 149.11L274.59 148.87L274.93 148.64L275.27 148.43L275.62 148.23L275.98 148.05L276.34 147.89L276.71 147.74L277.08 147.6L277.45 147.48L277.83 147.38L278.21 147.29L278.59 147.22L278.97 147.16L279.35 147.11L279.74 147.09L280.12 147.07L280.51 147.07L280.89 147.09L280.89 147.09L281.27 147.12Z" id="d165Q02a36"></path></defs><g><g><g><use xlink:href="#d165Q02a36" opacity="1" fill="#515151" fill-opacity="1"></use></g></g></g></svg>